<?xml version="1.0" standalone="no"?>
<!DOCTYPE svg PUBLIC "-//W3C//DTD SVG 1.1//EN" "http://www.w3.org/Graphics/SVG/1.1/DTD/svg11.dtd" >
<svg xmlns="http://www.w3.org/2000/svg">
<metadata></metadata>
<defs>
<font id="browallia_newbold" horiz-adv-x="744" >
<font-face units-per-em="2048" ascent="1638" descent="-410" />
<missing-glyph horiz-adv-x="371" />
<glyph horiz-adv-x="2048" />
<glyph horiz-adv-x="2048" />
<glyph unicode="&#xd;" horiz-adv-x="2048" />
<glyph unicode=" "  horiz-adv-x="371" />
<glyph unicode="&#x09;" horiz-adv-x="371" />
<glyph unicode="&#xa0;" horiz-adv-x="371" />
<glyph unicode="!" horiz-adv-x="445" d="M120 732v225h199v-225l-47 -485h-104zM128 0v183h183v-183h-183z" />
<glyph unicode="&#x22;" horiz-adv-x="634" d="M73 795v162h200v-162l-30 -178h-135zM368 795v162h199v-162l-30 -178h-135z" />
<glyph unicode="#" d="M12 238v144h117l39 192h-156v145h186l51 254h147l-52 -254h144l51 254h151l-52 -254h90v-145h-120l-39 -192h159v-144h-188l-52 -254h-145l50 254h-145l-52 -254h-147l52 254h-89zM277 382h145l38 192h-145z" />
<glyph unicode="$" d="M46 268l170 19q21 -106 103 -145v273q-247 71 -247 291q0 111 68 182t179 81v65h95v-65q208 -24 243 -227l-165 -21q-15 77 -78 104v-255q270 -68 270 -283q0 -124 -73 -202.5t-197 -96.5v-122h-95v119q-234 28 -273 283zM235 714q0 -76 84 -113v226q-84 -28 -84 -113z M414 133q110 20 110 130q0 92 -110 124v-254z" />
<glyph unicode="%" horiz-adv-x="1189" d="M58 721q0 252 210 252q212 0 212 -252q0 -253 -209 -253q-213 0 -213 253zM201 722q0 -149 67 -149q66 0 66 149t-66 149q-67 0 -67 -149zM272 -37l509 1010h132l-506 -1010h-135zM704 215q0 252 211 252t211 -252q0 -254 -209 -254q-213 0 -213 254zM847 215 q0 -148 66 -148q67 0 67 148q0 149 -67 149q-66 0 -66 -149z" />
<glyph unicode="&#x26;" horiz-adv-x="965" d="M59 262q0 185 218 294q-98 117 -98 210q0 100 77.5 153.5t190.5 53.5q103 0 183 -53.5t80 -164.5q0 -119 -174 -228l133 -176q24 42 41 109l165 -38q-36 -136 -82 -197q78 -73 151 -108l-111 -142q-82 40 -157 110q-113 -102 -278 -102q-163 0 -251 82.5t-88 196.5z M247 269q0 -135 143 -135q82 0 169 74l-186 230q-126 -64 -126 -169zM358 772q0 -34 42 -83l45 -52l49 38q55 43 55 84q0 85 -98 85q-93 0 -93 -72z" />
<glyph unicode="'" horiz-adv-x="318" d="M60 795v162h200v-162l-30 -178h-135z" />
<glyph unicode="(" horiz-adv-x="445" d="M70 347q0 330 207 626h125q-157 -346 -157 -630q0 -287 155 -624h-126q-204 308 -204 628z" />
<glyph unicode=")" horiz-adv-x="445" d="M44 973h124q208 -295 208 -617q0 -327 -204 -637h-127q155 332 155 624q0 285 -156 630z" />
<glyph unicode="*" horiz-adv-x="520" d="M18 761l39 115q85 -35 153 -76q-16 106 -16 173h116q0 -47 -18 -175q55 25 165 72l35 -119q-73 -16 -168 -32l78 -88q4 -5 37 -43l-100 -66l-88 145q-39 -70 -91 -150l-99 76q65 72 124 126q-114 25 -167 42z" />
<glyph unicode="+" horiz-adv-x="781" d="M55 386v172h251v249h167v-249h252v-172h-252v-248h-167v248h-251z" />
<glyph unicode="," horiz-adv-x="371" d="M76 -138q102 34 104 138h-89v183h184v-131q0 -210 -163 -265z" />
<glyph unicode="-" horiz-adv-x="445" d="M43 255v184h360v-184h-360z" />
<glyph unicode="." horiz-adv-x="371" d="M96 0v183h183v-183h-183z" />
<glyph unicode="/" horiz-adv-x="371" d="M-2 -16l237 989h138l-240 -989h-135z" />
<glyph unicode="0" d="M56 474q0 487 311 487t311 -489q0 -488 -311 -488t-311 490zM248 472q0 -207 31 -271.5t88 -64.5q65 0 92 73t27 263q0 191 -28.5 264t-90.5 73q-60 0 -89.5 -65.5t-29.5 -271.5z" />
<glyph unicode="1" d="M106 552v167q206 73 271 242h149v-961h-183v691q-101 -94 -237 -139z" />
<glyph unicode="2" d="M33 0q8 78 52 164t212 239q195 179 195 279q0 127 -124 127q-121 0 -130 -150l-183 19q30 283 318 283q135 0 219 -71.5t84 -194.5q0 -172 -209 -360q-130 -117 -155 -165h364v-170h-643z" />
<glyph unicode="3" d="M50 254l178 21q17 -139 136 -139q65 0 99.5 48.5t34.5 110.5q0 58 -32 104t-96 46q-35 0 -84 -13l20 149q153 0 153 123q0 106 -105 106q-106 0 -121 -128l-169 29q50 250 295 250q126 0 205 -74.5t79 -171.5q0 -126 -138 -201q181 -43 181 -227q0 -132 -93.5 -217.5 t-227.5 -85.5q-131 0 -216 73.5t-99 196.5z" />
<glyph unicode="4" d="M25 193v160l415 608h154v-607h119v-161h-119v-193h-178v193h-391zM196 354h220v327z" />
<glyph unicode="5" d="M59 246l183 19q21 -134 135 -134q137 0 137 187q0 176 -142 176q-79 0 -142 -70l-148 22l94 498h485v-172h-346l-29 -162q61 30 125 30q129 0 210.5 -91t81.5 -228q0 -118 -80 -227.5t-248 -109.5q-276 0 -316 262z" />
<glyph unicode="6" d="M57 465q0 496 350 496q231 0 271 -238l-177 -20q-13 107 -105 107q-132 0 -149 -269q68 80 170 80q124 0 201.5 -90.5t77.5 -222.5q0 -127 -75.5 -225.5t-232.5 -98.5q-331 0 -331 481zM262 322q0 -76 37 -131t99 -55q118 0 118 170q0 180 -128 180q-126 0 -126 -164z " />
<glyph unicode="7" d="M57 774v170h627v-133q-149 -147 -235.5 -381t-86.5 -430h-177q15 421 289 774h-417z" />
<glyph unicode="8" d="M54 274q0 174 160 242q-136 58 -136 198q0 116 79 181.5t209 65.5q114 0 200.5 -60t86.5 -187q0 -140 -132 -198q162 -65 162 -235q0 -137 -86 -217.5t-223 -80.5q-126 0 -223 71t-97 220zM235 291q0 -160 136 -160q131 0 131 158q0 149 -134 149q-62 0 -97.5 -42 t-35.5 -105zM252 701q0 -116 114 -116t114 117q0 113 -112 113q-116 0 -116 -114z" />
<glyph unicode="9" d="M42 637q0 125 76 224.5t231 99.5q333 0 333 -483q0 -495 -351 -495q-231 0 -270 238l177 20q13 -107 107 -107q129 0 147 269q-69 -80 -173 -80q-127 0 -202 95.5t-75 218.5zM223 637q0 -179 128 -179q125 0 125 164q0 71 -34 129t-101 58q-118 0 -118 -172z" />
<glyph unicode=":" horiz-adv-x="445" d="M131 0v183h184v-183h-184zM131 510v183h184v-183h-184z" />
<glyph unicode=";" horiz-adv-x="445" d="M111 -138q101 34 104 138h-89v183h183v-131q0 -214 -162 -265zM126 510v183h183v-183h-183z" />
<glyph unicode="&#x3c;" horiz-adv-x="781" d="M62 394v158l656 284v-186l-458 -175l458 -181v-185z" />
<glyph unicode="=" horiz-adv-x="781" d="M55 243v169h670v-169h-670zM55 533v168h670v-168h-670z" />
<glyph unicode="&#x3e;" horiz-adv-x="781" d="M62 108v185l458 180l-458 178v184l657 -284v-157z" />
<glyph unicode="?" horiz-adv-x="817" d="M69 687q7 126 105 203t237 77q128 0 236.5 -71t108.5 -204q0 -62 -36 -116t-145 -146q-56 -47 -71 -79.5t-14 -103.5h-166l-1 43q0 143 134 251q77 62 98.5 88.5t21.5 67.5q0 59 -45.5 94.5t-112.5 35.5q-147 0 -181 -161zM324 0v183h183v-183h-183z" />
<glyph unicode="@" horiz-adv-x="1304" d="M40 315q0 276 177.5 467.5t491.5 191.5q268 0 411.5 -145t143.5 -358q0 -160 -112.5 -315.5t-319.5 -155.5q-99 0 -118 74q-77 -74 -177 -74q-114 0 -183 76.5t-69 197.5q0 167 101 300.5t253 133.5q116 0 172 -89l16 72h172l-98 -468q-9 -43 -9 -57q0 -33 25 -33 q52 0 141 94t89 250q0 175 -122.5 276t-318.5 101q-279 0 -413 -164t-134 -384q0 -206 140.5 -336.5t411.5 -130.5q312 0 449 173h139q-145 -293 -578 -293q-346 0 -513.5 166t-167.5 430zM454 281q0 -162 117 -162q98 0 151 107.5t53 210.5q0 153 -121 153 q-103 0 -151.5 -106.5t-48.5 -202.5z" />
<glyph unicode="A" horiz-adv-x="965" d="M0 0l373 957h204l383 -957h-210l-83 217h-383l-79 -217h-205zM343 379h261l-131 355z" />
<glyph unicode="B" horiz-adv-x="965" d="M98 0v957h382q231 0 302 -70.5t71 -170.5q0 -147 -135 -207q182 -53 182 -232q0 -103 -56.5 -172t-129 -87t-290.5 -18h-326zM291 161h179q134 0 182 24t48 102q0 75 -51.5 102.5t-201.5 27.5h-156v-256zM291 576h127q150 0 198.5 20.5t48.5 92.5q0 67 -43 88t-220 21 h-111v-222z" />
<glyph unicode="C" horiz-adv-x="965" d="M63 470q0 229 118.5 366t329.5 137q305 0 383 -280l-191 -45q-37 160 -202 160q-239 0 -239 -324q0 -335 235 -335q166 0 213 203l187 -60q-85 -308 -398 -308q-224 0 -330 147t-106 339z" />
<glyph unicode="D" horiz-adv-x="965" d="M97 0v957h353q149 0 242 -41t150 -157t57 -290q0 -469 -439 -469h-363zM290 161h144q148 0 206.5 64t58.5 253q0 141 -36 209.5t-92.5 88t-193.5 19.5h-87v-634z" />
<glyph unicode="E" horiz-adv-x="892" d="M97 0v957h710v-162h-517v-212h481v-161h-481v-261h535v-161h-728z" />
<glyph unicode="F" horiz-adv-x="817" d="M99 0v957h656v-162h-463v-226h399v-162h-399v-407h-193z" />
<glyph unicode="G" horiz-adv-x="1040" d="M64 482q0 246 138 368.5t337 122.5q346 0 408 -281l-192 -36q-44 152 -216 152q-276 0 -276 -318q0 -159 70.5 -250t203.5 -91q122 0 227 81v122h-222v161h417v-381q-161 -148 -409 -148q-238 0 -362 139.5t-124 358.5z" />
<glyph unicode="H" horiz-adv-x="965" d="M98 0v957h193v-377h379v377h193v-957h-193v418h-379v-418h-193z" />
<glyph unicode="I" horiz-adv-x="371" d="M91 0v957h194v-957h-194z" />
<glyph unicode="J" d="M23 296l182 21q2 -168 119 -168q69 0 94 41t25 149v618h192v-606q0 -176 -68 -271.5t-249 -95.5q-294 0 -295 312z" />
<glyph unicode="K" horiz-adv-x="965" d="M100 0v957h193v-425l390 425h260l-360 -373l380 -584h-250l-263 449l-157 -160v-289h-193z" />
<glyph unicode="L" horiz-adv-x="817" d="M97 0v957h194v-796h480v-161h-674z" />
<glyph unicode="M" horiz-adv-x="1114" d="M95 0v957h289l173 -653l172 653h290v-957h-179v753l-190 -753h-187l-189 753v-753h-179z" />
<glyph unicode="N" horiz-adv-x="965" d="M99 0v957h188l392 -639v639h179v-957h-193l-386 624v-624h-180z" />
<glyph unicode="O" horiz-adv-x="1040" d="M58 473q0 232 122.5 366t340.5 134q247 0 356 -147t109 -349q0 -228 -123 -360.5t-339 -132.5q-218 0 -342 131t-124 358zM257 479q0 -149 69.5 -239.5t196.5 -90.5q133 0 198.5 95t65.5 238q0 326 -264 326q-266 0 -266 -329z" />
<glyph unicode="P" horiz-adv-x="892" d="M97 0v957h310q159 0 232.5 -14t132 -88t58.5 -192q0 -105 -46 -175t-119.5 -98.5t-248.5 -28.5h-126v-361h-193zM290 524h106q128 0 181.5 28t53.5 108q0 77 -47.5 106t-199.5 29h-94v-271z" />
<glyph unicode="Q" horiz-adv-x="1040" d="M58 479q0 230 123 362t343 132q218 0 340 -132t122 -362q0 -219 -118 -358q71 -50 154 -81l-71 -136q-68 19 -214 121q-94 -41 -208 -41q-251 0 -361 145t-110 350zM257 479q0 -137 60.5 -236t198.5 -99q42 0 79 14q-58 38 -119 60l54 110q95 -32 182 -98q75 88 75 249 q0 329 -265 329q-128 0 -196.5 -88.5t-68.5 -240.5z" />
<glyph unicode="R" horiz-adv-x="965" d="M98 0v957h407q189 0 282.5 -57t93.5 -211q0 -230 -253 -267q98 -51 213 -235l117 -187h-231l-208 310q-31 46 -69 68t-120 22h-39v-400h-193zM291 552h143q146 0 197 24.5t51 99.5q0 71 -42 95t-198 24h-151v-243z" />
<glyph unicode="S" horiz-adv-x="892" d="M48 311l188 19q33 -184 209 -184q188 0 188 132q0 50 -41 75.5t-203 65.5q-306 77 -306 287q0 128 96 197.5t253 69.5q357 0 367 -290l-193 -8q-23 138 -176 138q-162 0 -162 -94q0 -31 28.5 -59t179.5 -66q241 -62 295.5 -137.5t54.5 -177.5q0 -296 -383 -296 q-356 0 -395 328z" />
<glyph unicode="T" horiz-adv-x="817" d="M29 795v162h760v-162h-283v-795h-193v795h-284z" />
<glyph unicode="U" horiz-adv-x="965" d="M96 447v510h193v-518q0 -115 8 -167t55 -87.5t131 -35.5q106 0 144.5 50t38.5 229v529h193v-503q0 -176 -21.5 -263.5t-105.5 -147t-243 -59.5q-155 0 -243 50.5t-119 131.5t-31 281z" />
<glyph unicode="V" horiz-adv-x="892" d="M-1 957h210l242 -708l234 708h205l-342 -957h-207z" />
<glyph unicode="W" horiz-adv-x="1262" d="M5 957h197l145 -657l175 657h229l168 -668l147 668h195l-233 -957h-205l-190 715l-190 -715h-210z" />
<glyph unicode="X" horiz-adv-x="892" d="M0 0l327 499l-296 458h226l191 -307l188 307h224l-297 -465l327 -492h-233l-212 331l-213 -331h-232z" />
<glyph unicode="Y" horiz-adv-x="892" d="M-2 957h227l225 -379l220 379h223l-352 -556v-401h-192v403z" />
<glyph unicode="Z" horiz-adv-x="817" d="M14 0v174l503 621h-446v162h701v-150l-525 -646h545v-161h-778z" />
<glyph unicode="[" horiz-adv-x="445" d="M95 -270v1227h325v-144h-150v-938h150v-145h-325z" />
<glyph unicode="\" horiz-adv-x="371" d="M-2 973h135l240 -989h-138z" />
<glyph unicode="]" horiz-adv-x="445" d="M25 -125h151v939h-151v143h325v-1227h-325v145z" />
<glyph unicode="^" horiz-adv-x="781" d="M75 452l246 521h145l239 -521h-185l-130 319l-128 -319h-187z" />
<glyph unicode="_" d="M-12 -146h762v-118h-762v118z" />
<glyph unicode="`" horiz-adv-x="445" d="M27 973h206l90 -195h-115z" />
<glyph unicode="a" d="M48 189q0 75 41.5 130t210.5 88q130 25 179 45v19q0 98 -125 98q-90 0 -121 -87l-166 30q55 197 300 197q171 0 231.5 -59t60.5 -208l-2 -214q0 -143 41 -228h-181q-11 27 -24 76q-94 -92 -215 -92q-102 0 -166 55.5t-64 149.5zM231 208q0 -45 32 -69.5t70 -24.5 q146 0 146 182v37q-88 -17 -212 -60q-36 -25 -36 -65z" />
<glyph unicode="b" horiz-adv-x="817" d="M88 0v957h184v-345q84 97 201 97q138 0 215 -98t77 -257q0 -145 -71.5 -257.5t-218.5 -112.5q-132 0 -216 118v-102h-171zM270 362q0 -233 161 -233q146 0 146 216q0 224 -153 224q-154 0 -154 -207z" />
<glyph unicode="c" d="M55 346q0 148 79.5 255.5t257.5 107.5q244 0 308 -221l-180 -32q-19 109 -126 109q-150 0 -150 -206q0 -225 153 -225q107 0 132 132l181 -31q-57 -251 -322 -251q-156 0 -244.5 99t-88.5 263z" />
<glyph unicode="d" horiz-adv-x="817" d="M55 349q0 165 76.5 262.5t215.5 97.5q116 0 201 -97v345h184v-957h-171v102q-84 -118 -216 -118q-133 0 -211.5 104t-78.5 261zM242 362q0 -233 155 -233q73 0 112.5 61t39.5 154q0 225 -153 225q-154 0 -154 -207z" />
<glyph unicode="e" d="M42 341q0 164 86 266t232 102q330 0 330 -415h-460q9 -173 151 -173q88 0 116 100l183 -31q-72 -206 -301 -206q-179 0 -258 104t-79 253zM234 406h274q-5 163 -137 163q-137 0 -137 -163z" />
<glyph unicode="f" horiz-adv-x="445" d="M16 549v144h102v52q0 228 213 228q78 0 153 -23l-24 -128q-44 10 -85 10q-74 0 -74 -90v-49h137v-144h-137v-549h-183v549h-102z" />
<glyph unicode="g" horiz-adv-x="817" d="M55 351q0 143 70.5 250.5t221.5 107.5q129 0 212 -113v97h172v-622q0 -200 -74 -276t-255 -76q-170 0 -251 59q-73 53 -73 153q0 11 1 23l210 -25q10 -70 106 -70q85 0 119 32.5t34 119.5v101q-83 -112 -208 -112q-135 0 -210 102.5t-75 248.5zM243 361q0 -213 148 -213 q160 0 160 208q0 213 -157 213q-151 0 -151 -208z" />
<glyph unicode="h" horiz-adv-x="817" d="M95 0v957h184v-352q89 104 212 104q134 0 185 -75.5t51 -226.5v-407h-184v366q0 120 -22 161.5t-91 41.5q-151 0 -151 -222v-347h-184z" />
<glyph unicode="i" horiz-adv-x="371" d="M96 0v693h183v-693h-183zM96 787v170h183v-170h-183z" />
<glyph unicode="j" horiz-adv-x="371" d="M-61 -262l32 157q29 -6 45 -6q48 0 62 24.5t14 118.5v661h183v-671q0 -168 -43 -235.5t-166 -67.5q-54 0 -127 19zM92 787v170h183v-170h-183z" />
<glyph unicode="k" d="M89 0v957h184v-508l215 244h226l-237 -253l253 -440h-197l-175 311l-85 -89v-222h-184z" />
<glyph unicode="l" horiz-adv-x="371" d="M96 0v957h183v-957h-183z" />
<glyph unicode="m" horiz-adv-x="1189" d="M82 0v693h169v-94q91 110 216 110q134 0 196 -110q91 110 212 110q227 0 227 -266v-443h-184v396q0 118 -28 145.5t-69 27.5q-136 0 -136 -236v-333h-184v380q0 85 -15 137t-81 52q-60 0 -99.5 -38.5t-39.5 -193.5v-337h-184z" />
<glyph unicode="n" horiz-adv-x="817" d="M95 0v693h170v-102q91 118 229 118q233 0 233 -278v-431h-184v354q0 122 -22.5 168.5t-90.5 46.5q-61 0 -106.5 -35.5t-45.5 -219.5v-314h-183z" />
<glyph unicode="o" horiz-adv-x="817" d="M54 356q0 147 98 250t259 103q159 0 258.5 -101t99.5 -259t-100 -261.5t-257 -103.5q-163 0 -260.5 97t-97.5 275zM242 347q0 -95 44.5 -154t124.5 -59t124.5 59.5t44.5 154.5t-44.5 153t-124.5 58t-124.5 -58.5t-44.5 -153.5z" />
<glyph unicode="p" horiz-adv-x="817" d="M91 -264v957h171v-102q75 118 216 118q138 0 213.5 -105t75.5 -253q0 -158 -78 -262.5t-212 -104.5q-109 0 -203 102v-350h-183zM272 358q0 -228 160 -228q148 0 148 219q0 215 -152 215q-156 0 -156 -206z" />
<glyph unicode="q" horiz-adv-x="817" d="M59 354q0 140 71.5 247.5t223.5 107.5q131 0 209 -118v102h169v-957h-183v349q-78 -101 -205 -101q-132 0 -208.5 105.5t-76.5 264.5zM247 345q0 -216 149 -216q78 0 118.5 66.5t40.5 159.5q0 210 -152 210q-156 0 -156 -220z" />
<glyph unicode="r" horiz-adv-x="520" d="M88 0v693h171v-98q71 114 157 114q63 0 121 -35l-57 -160q-46 30 -86 30q-70 0 -96 -65.5t-26 -264.5v-214h-184z" />
<glyph unicode="s" d="M31 198l184 28q24 -109 149 -109q131 0 131 75q0 42 -75 59q-254 56 -308.5 111t-54.5 134q0 213 292 213q254 0 306 -183l-173 -32q-22 83 -130 83q-125 0 -125 -57q0 -47 196 -90q143 -31 199.5 -78t56.5 -135q0 -115 -92.5 -174t-222.5 -59q-278 0 -333 214z" />
<glyph unicode="t" horiz-adv-x="445" d="M20 547v146h84v138l185 107v-245h125v-146h-125v-279q0 -84 10 -108t40 -24q26 0 74 18l16 -142q-64 -28 -145 -28q-114 0 -147 57.5t-33 203.5v302h-84z" />
<glyph unicode="u" horiz-adv-x="817" d="M92 255v438h183v-318q0 -151 22.5 -201t92.5 -50q87 0 118 53.5t31 223.5v292h184v-693h-171v104q-81 -120 -230 -120q-230 0 -230 271z" />
<glyph unicode="v" d="M7 693h193l168 -472l171 472h188l-275 -693h-165z" />
<glyph unicode="w" horiz-adv-x="1040" d="M6 693h178l130 -454l119 454h177l116 -454l132 454h181l-222 -693h-177l-119 446l-118 -446h-178z" />
<glyph unicode="x" d="M8 0l250 357l-240 336h224l123 -190l129 190h216l-235 -328l256 -365h-225l-141 215l-142 -215h-215z" />
<glyph unicode="y" d="M9 693h195l166 -492l162 492h190l-289 -788q-68 -186 -259 -186q-53 0 -104 11l-16 143q43 -8 77 -8q104 0 142 133z" />
<glyph unicode="z" horiz-adv-x="668" d="M22 0v143l260 298q61 70 95 104l-85 -3l-244 -1v152h573v-130l-265 -305l-94 -101q77 4 95 4h284v-161h-619z" />
<glyph unicode="{" horiz-adv-x="520" d="M39 268v156q89 5 116 57t27 176q0 199 53 257.5t216 58.5h35v-156q-55 0 -88.5 -10t-37.5 -29t-13 -207q-9 -164 -117 -225q76 -45 99 -120t23 -256q0 -58 26 -76.5t108 -18.5v-156h-35q-149 0 -209 56.5t-60 235.5q0 142 -27 197t-116 60z" />
<glyph unicode="|" horiz-adv-x="374" d="M115 -281v1254h145v-1254h-145z" />
<glyph unicode="}" horiz-adv-x="520" d="M29 -125q108 0 119 26t20 217q9 168 117 228q-74 48 -96 110t-26 262q-2 63 -23.5 81t-110.5 18v156h35q149 0 209 -56.5t60 -235.5q0 -142 26.5 -197t116.5 -60v-156q-78 -5 -110.5 -53t-32.5 -179q0 -217 -64 -267t-205 -50h-35v156z" />
<glyph unicode="~" horiz-adv-x="781" d="M44 339v169q83 90 193 90q69 0 200 -53q89 -36 122 -36q90 0 178 94v-176q-83 -86 -195 -86q-56 0 -160 44q-104 45 -160 45q-91 0 -178 -91z" />
<glyph horiz-adv-x="1024" />
<glyph unicode="&#xa1;" horiz-adv-x="445" d="M127 -41l48 484h103l48 -484v-225h-199v225zM135 510v183h184v-183h-184z" />
<glyph unicode="&#xa2;" d="M55 349q0 360 372 360q17 -3 25 -4l74 246l80 -23l-73 -242q124 -48 167 -198l-181 -32q-7 45 -33 74l-119 -394l29 -2q106 0 133 132l180 -31q-57 -251 -320 -251q-29 0 -66 5l-77 -252l-79 22l75 251q-187 88 -187 339zM243 358q0 -126 50 -182l116 388l-15 1 q-151 0 -151 -207z" />
<glyph unicode="&#xa3;" d="M8 142q139 99 139 226l-3 38h-136v144h103q-27 77 -27 156q0 112 84.5 190t220.5 78q261 0 298 -252l-177 -26q-21 131 -127 131q-58 0 -89.5 -38.5t-31.5 -83.5q0 -69 33 -155h203v-144h-173l1 -29q0 -94 -99 -210q36 18 90 18l41 -3q11 -1 53 -12q82 -20 108 -20 q52 0 133 36l71 -155q-94 -46 -180 -46q-59 0 -156 27q-97 28 -146 28q-80 0 -163 -56z" />
<glyph unicode="&#xa4;" d="M29 700l109 116l89 -89q63 38 142 38q78 0 143 -38l87 88l110 -110l-87 -87q37 -69 37 -143q0 -78 -37 -142l88 -87l-109 -111l-89 88q-74 -37 -142 -37q-79 0 -141 37l-85 -86l-111 110l85 86q-38 69 -38 142q0 80 36 139zM238 475q0 -62 42.5 -97t89.5 -35 q33 0 62 15.5t49.5 46t20.5 70.5q0 38 -18 67.5t-47.5 47t-66.5 17.5q-63 0 -97.5 -42t-34.5 -90z" />
<glyph unicode="&#xa5;" d="M1 957h201l130 -278q25 -54 36 -92q10 40 35 92l133 278h201l-205 -412h173v-144h-246v-78h246v-145h-246v-178h-183v178h-243v145h243v78h-243v144h171z" />
<glyph unicode="&#xa6;" horiz-adv-x="374" d="M115 235h146v-516h-146v516zM115 458v516h146v-516h-146z" />
<glyph unicode="&#xa7;" d="M39 408q0 142 120 209q-66 74 -66 146q0 89 69.5 150t193.5 61q250 0 288 -220l-180 -19q0 99 -100 99q-86 0 -86 -61q0 -32 26 -57t137 -97q146 -91 201 -154.5t55 -147.5q0 -120 -118 -205q79 -75 79 -166q0 -95 -73 -161t-208 -66q-269 0 -302 237l179 21 q24 -118 128 -118q94 0 94 77q0 37 -33.5 63t-164.5 111q-149 94 -194 157.5t-45 140.5zM205 444q0 -67 88 -125l187 -128q57 51 57 96t-98 117l-178 129q-56 -38 -56 -89z" />
<glyph unicode="&#xa8;" horiz-adv-x="445" d="M3 816v158h158v-158h-158zM284 816v158h158v-158h-158z" />
<glyph unicode="&#xa9;" horiz-adv-x="985" d="M-6 477q0 207 144.5 353.5t355.5 146.5q205 0 353 -144t148 -356q0 -202 -145 -351.5t-356 -149.5q-204 0 -352 146t-148 355zM93 477q0 -169 118.5 -285.5t282.5 -116.5q166 0 284 118.5t118 283.5q0 168 -118 284.5t-284 116.5q-167 0 -284 -116.5t-117 -284.5z M249 472q0 138 71.5 210t182.5 72q162 0 218 -159l-106 -25q-34 91 -116 91q-135 0 -135 -185t126 -185q92 0 126 111l105 -35q-52 -170 -219 -170q-99 0 -176 65t-77 210z" />
<glyph unicode="&#xaa;" horiz-adv-x="495" d="M24 626q0 67 39.5 97.5t164.5 56.5q53 11 82 22l-1 14q-4 55 -66 55q-60 0 -77 -53l-124 24q29 132 198 132q127 0 165 -39.5t38 -145.5v-156q0 -109 19 -136h-124q-8 17 -15 46q-58 -58 -141 -58q-158 0 -158 141zM159 636q0 -53 64 -53q87 0 87 106v26q-25 -10 -51 -16 q-100 -19 -100 -63z" />
<glyph unicode="&#xab;" d="M63 347l206 295h144l-169 -295l169 -301h-144zM319 347l206 295h144l-169 -295l169 -301h-144z" />
<glyph unicode="&#xac;" horiz-adv-x="781" d="M56 534v167h669v-455h-168v288h-501z" />
<glyph unicode="&#xad;" horiz-adv-x="445" d="M42 255v184h361v-184h-361z" />
<glyph unicode="&#xae;" horiz-adv-x="985" d="M-6 477q0 207 144 353.5t356 146.5q205 0 353 -143t148 -357q0 -202 -145 -351.5t-356 -149.5q-204 0 -352 146t-148 355zM93 477q0 -164 117 -283.5t285 -119.5q165 0 283.5 116.5t118.5 286.5q0 165 -115.5 283.5t-286.5 118.5q-172 0 -287 -121t-115 -281zM268 209 v531h108l170 -1q69 0 111 -43.5t42 -105.5q0 -124 -143 -149q34 -9 73 -60l39 -65l63 -107h-134l-44 86q-41 80 -71.5 106t-77.5 26h-28v-218h-108zM376 511h44q102 0 133 14t31 59q0 23 -13 39q-12 33 -151 33h-44v-145z" />
<glyph unicode="&#xaf;" horiz-adv-x="739" d="M-12 1013v120h762v-120h-762z" />
<glyph unicode="&#xb0;" horiz-adv-x="535" d="M56 765q0 87 61 148t147 61q60 0 106.5 -28.5t74.5 -75t28 -105.5q0 -75 -55 -141.5t-154 -66.5q-75 0 -141.5 54.5t-66.5 153.5zM165 765q0 -42 29.5 -71t69.5 -29q41 0 70.5 29t29.5 71t-30 71t-70 29q-34 0 -66.5 -26.5t-32.5 -73.5z" />
<glyph unicode="&#xb1;" horiz-adv-x="734" d="M33 0v172h669v-172h-669zM33 481v172h250v249h168v-249h251v-172h-251v-249h-168v249h-250z" />
<glyph unicode="&#xb2;" horiz-adv-x="445" d="M16 475q8 98 163 220q110 86 110 128q0 53 -66 53q-61 0 -70 -75l-124 10q16 158 197 158q90 0 138.5 -41.5t48.5 -98.5q0 -52 -30 -93t-121 -113l-54 -45h205v-103h-397z" />
<glyph unicode="&#xb3;" horiz-adv-x="445" d="M26 618l120 13q11 -71 74 -71q71 0 71 71q0 64 -67 64q-20 0 -59 -9l15 95q88 0 88 52q0 43 -54 43q-56 0 -64 -64l-117 17q30 140 184 140q89 0 132.5 -44t43.5 -89q0 -56 -63 -94q89 -36 89 -117q0 -53 -50.5 -105.5t-149.5 -52.5q-167 0 -193 151z" />
<glyph unicode="&#xb4;" horiz-adv-x="445" d="M122 778l90 196h206l-180 -196h-116z" />
<glyph unicode="&#xb5;" horiz-adv-x="771" d="M72 -266v959h183v-314q0 -248 130 -248q65 0 99 54t34 192v316h185v-693h-171v84q-52 -101 -139 -101t-138 101v-350h-183z" />
<glyph unicode="&#xb6;" d="M-1 687q0 98 48 163t112 86t188 21h390v-170h-74v-1050h-154v1050h-94v-1050h-159v684q-105 0 -181 69t-76 197z" />
<glyph unicode="&#xb7;" horiz-adv-x="372" d="M96 374v184h183v-184h-183z" />
<glyph unicode="&#xb8;" horiz-adv-x="445" d="M25 -186q62 -7 123 -7q108 0 108 61q0 55 -83 55q-42 0 -85 -13l16 65q53 17 110 17q167 0 167 -123q0 -143 -229 -143q-81 0 -127 11v77z" />
<glyph unicode="&#xb9;" horiz-adv-x="445" d="M59 746v101q129 41 164 122h100v-494h-124v335q-58 -41 -140 -64z" />
<glyph unicode="&#xba;" horiz-adv-x="488" d="M17 728q0 116 61.5 181t165.5 65q101 0 163.5 -65.5t62.5 -180.5q0 -132 -67.5 -188.5t-158.5 -56.5q-103 0 -165 65t-62 180zM155 727q0 -133 87 -133t87 133q0 132 -87 132t-87 -132z" />
<glyph unicode="&#xbb;" d="M69 46l170 295l-170 301h145l206 -301l-206 -295h-145zM325 46l170 295l-170 301h145l206 -301l-206 -295h-145z" />
<glyph unicode="&#xbc;" horiz-adv-x="1115" d="M60 746v101q131 42 163 122h101v-494h-124v335q-61 -42 -140 -64zM222 -35l567 1004h104l-567 -1004h-104zM681 68v92l250 307h101v-304h70v-95h-70v-95h-116v95h-235zM797 163h119v147z" />
<glyph unicode="&#xbd;" horiz-adv-x="1115" d="M60 746v101q131 42 163 122h101v-494h-124v335q-61 -42 -140 -64zM222 -35l567 1004h104l-567 -1004h-104zM685 -27q6 96 163 220q109 86 109 128q0 53 -66 53q-61 0 -69 -76l-124 11q20 158 197 158q98 0 142 -45.5t44 -95.5t-25.5 -88t-125.5 -117q-38 -31 -53 -46h204 v-102h-396z" />
<glyph unicode="&#xbe;" horiz-adv-x="1115" d="M26 618l120 13q11 -71 74 -71q71 0 71 71q0 64 -67 64q-20 0 -59 -9l15 95q88 0 88 52q0 43 -54 43q-56 0 -64 -64l-117 17q30 140 184 140q89 0 132.5 -44t43.5 -89q0 -56 -63 -94q89 -36 89 -117q0 -53 -50.5 -105.5t-149.5 -52.5q-167 0 -193 151zM238 -35l567 1004 h103l-566 -1004h-104zM680 68v92l250 307h102v-304h70v-95h-70v-95h-116v95h-236zM797 163h119v147z" />
<glyph unicode="&#xbf;" horiz-adv-x="817" d="M66 -1q0 65 36.5 119.5t145.5 145.5q58 46 71 75.5t13 107.5h166l2 -50q0 -135 -140 -249q-89 -73 -102 -99.5t-13 -55.5q0 -44 39.5 -85.5t119.5 -41.5q144 0 181 161l169 -21q-43 -280 -343 -280q-173 0 -259 89.5t-86 183.5zM315 510v183h183v-183h-183z" />
<glyph unicode="&#xc0;" horiz-adv-x="965" d="M0 0l373 957h204l383 -957h-210l-83 217h-383l-79 -217h-205zM247 1243h206l90 -195h-115zM343 379h261l-131 355z" />
<glyph unicode="&#xc1;" horiz-adv-x="965" d="M0 0l373 957h204l383 -957h-210l-83 217h-383l-79 -217h-205zM343 379h261l-131 355zM372 1048l90 196h206l-180 -196h-116z" />
<glyph unicode="&#xc2;" horiz-adv-x="965" d="M0 0l373 957h204l383 -957h-210l-83 217h-383l-79 -217h-205zM252 1051l137 193h170l135 -193h-148l-75 97l-71 -97h-148zM343 379h261l-131 355z" />
<glyph unicode="&#xc3;" horiz-adv-x="965" d="M0 0l373 957h204l383 -957h-210l-83 217h-383l-79 -217h-205zM237 1057v23q0 143 118 143q46 0 114 -34q51 -22 82 -22q45 0 52 56h85q0 -164 -116 -164q-17 0 -44 5l-75 27q-64 23 -87 23q-45 0 -45 -57h-84zM343 379h261l-131 355z" />
<glyph unicode="&#xc4;" horiz-adv-x="965" d="M0 0l373 957h204l383 -957h-210l-83 217h-383l-79 -217h-205zM243 1056v158h158v-158h-158zM343 379h261l-131 355zM524 1056v158h158v-158h-158z" />
<glyph unicode="&#xc5;" horiz-adv-x="965" d="M0 0l373 957h204l383 -957h-210l-83 217h-383l-79 -217h-205zM340 1146q0 54 37.5 91t90.5 37q36 0 64.5 -17.5t46 -46t17.5 -64.5t-17.5 -64.5t-46.5 -46t-64 -17.5q-53 0 -90.5 37t-37.5 91zM343 379h261l-131 355zM410 1146q0 -58 58 -58t58 58t-58 58t-58 -58z" />
<glyph unicode="&#xc6;" horiz-adv-x="1337" d="M-56 0l446 957h865v-162h-474v-213h437v-161h-437v-260h492v-161h-685v225h-332l-98 -225h-214zM327 392h263v420h-75z" />
<glyph unicode="&#xc7;" horiz-adv-x="965" d="M63 470q0 229 118.5 366t329.5 137q305 0 383 -280l-191 -45q-37 160 -202 160q-239 0 -239 -324q0 -335 235 -335q166 0 213 203l187 -60q-85 -308 -398 -308q-224 0 -330 147t-106 339zM300 -186q62 -7 123 -7q108 0 108 61q0 55 -83 55q-42 0 -85 -13l16 65 q53 17 110 17q167 0 167 -123q0 -143 -229 -143q-81 0 -127 11v77z" />
<glyph unicode="&#xc8;" horiz-adv-x="892" d="M97 0v957h710v-162h-517v-212h481v-161h-481v-261h535v-161h-728zM237 1253h206l90 -195h-115z" />
<glyph unicode="&#xc9;" horiz-adv-x="892" d="M97 0v957h710v-162h-517v-212h481v-161h-481v-261h535v-161h-728zM362 1058l90 196h206l-180 -196h-116z" />
<glyph unicode="&#xca;" horiz-adv-x="892" d="M97 0v957h710v-162h-517v-212h481v-161h-481v-261h535v-161h-728zM232 1061l137 193h170l135 -193h-148l-75 97l-71 -97h-148z" />
<glyph unicode="&#xcb;" horiz-adv-x="892" d="M97 0v957h710v-162h-517v-212h481v-161h-481v-261h535v-161h-728zM233 1056v158h158v-158h-158zM514 1056v158h158v-158h-158z" />
<glyph unicode="&#xcc;" horiz-adv-x="371" d="M-23 1243h206l90 -195h-115zM91 0v957h194v-957h-194z" />
<glyph unicode="&#xcd;" horiz-adv-x="371" d="M91 0v957h194v-957h-194zM112 1048l90 196h206l-180 -196h-116z" />
<glyph unicode="&#xce;" horiz-adv-x="371" d="M-48 1051l137 193h170l135 -193h-148l-75 97l-71 -97h-148zM91 0v957h194v-957h-194z" />
<glyph unicode="&#xcf;" horiz-adv-x="371" d="M-37 1066v158h158v-158h-158zM91 0v957h194v-957h-194zM244 1066v158h158v-158h-158z" />
<glyph unicode="&#xd0;" horiz-adv-x="966" d="M-2 418v121h99v418h353q136 0 226.5 -34.5t157 -148.5t66.5 -307q0 -467 -440 -467h-363v418h-99zM290 161h145q139 0 202 56.5t63 256.5q0 140 -33 208t-88.5 90.5t-201.5 22.5h-87v-256h205v-121h-205v-257z" />
<glyph unicode="&#xd1;" horiz-adv-x="965" d="M99 0v957h188l392 -639v639h179v-957h-193l-386 624v-624h-180zM262 1047v23q0 143 118 143q46 0 114 -34q51 -22 82 -22q45 0 52 56h85q0 -164 -116 -164q-17 0 -44 5l-75 27q-64 23 -87 23q-45 0 -45 -57h-84z" />
<glyph unicode="&#xd2;" horiz-adv-x="1040" d="M58 473q0 232 122.5 366t340.5 134q247 0 356 -147t109 -349q0 -228 -123 -360.5t-339 -132.5q-218 0 -342 131t-124 358zM257 479q0 -149 69.5 -239.5t196.5 -90.5q133 0 198.5 95t65.5 238q0 326 -264 326q-266 0 -266 -329zM287 1253h206l90 -195h-115z" />
<glyph unicode="&#xd3;" horiz-adv-x="1040" d="M58 473q0 232 122.5 366t340.5 134q247 0 356 -147t109 -349q0 -228 -123 -360.5t-339 -132.5q-218 0 -342 131t-124 358zM257 479q0 -149 69.5 -239.5t196.5 -90.5q133 0 198.5 95t65.5 238q0 326 -264 326q-266 0 -266 -329zM432 1058l90 196h206l-180 -196h-116z" />
<glyph unicode="&#xd4;" horiz-adv-x="1040" d="M58 473q0 232 122.5 366t340.5 134q247 0 356 -147t109 -349q0 -228 -123 -360.5t-339 -132.5q-218 0 -342 131t-124 358zM257 479q0 -149 69.5 -239.5t196.5 -90.5q133 0 198.5 95t65.5 238q0 326 -264 326q-266 0 -266 -329zM297 1061l137 193h170l135 -193h-148 l-75 97l-71 -97h-148z" />
<glyph unicode="&#xd5;" horiz-adv-x="1040" d="M58 473q0 232 122.5 366t340.5 134q247 0 356 -147t109 -349q0 -228 -123 -360.5t-339 -132.5q-218 0 -342 131t-124 358zM257 479q0 -149 69.5 -239.5t196.5 -90.5q133 0 198.5 95t65.5 238q0 326 -264 326q-266 0 -266 -329zM282 1067v23q0 143 118 143q46 0 114 -34 q51 -22 82 -22q45 0 52 56h85q0 -164 -116 -164q-17 0 -44 5l-75 27q-64 23 -87 23q-45 0 -45 -57h-84z" />
<glyph unicode="&#xd6;" horiz-adv-x="1040" d="M58 473q0 232 122.5 366t340.5 134q247 0 356 -147t109 -349q0 -228 -123 -360.5t-339 -132.5q-218 0 -342 131t-124 358zM257 479q0 -149 69.5 -239.5t196.5 -90.5q133 0 198.5 95t65.5 238q0 326 -264 326q-266 0 -266 -329zM303 1066v158h158v-158h-158zM584 1066v158 h158v-158h-158z" />
<glyph unicode="&#xd7;" horiz-adv-x="781" d="M71 669l122 122l198 -198l197 197l119 -119l-198 -197l200 -199l-122 -122l-199 200l-197 -198l-119 119l198 197z" />
<glyph unicode="&#xd8;" horiz-adv-x="1040" d="M41 27l112 126q-96 128 -96 332q0 225 126 357t337 132q173 0 289 -87l103 116l91 -80l-109 -122q92 -131 92 -328q0 -227 -126 -358t-333 -131q-181 0 -287 81l-106 -119zM257 480q0 -107 30 -178l402 451q-67 56 -167 56q-265 0 -265 -329zM358 199q68 -59 162 -59 q116 0 191 84.5t75 251.5q0 109 -26 174z" />
<glyph unicode="&#xd9;" horiz-adv-x="965" d="M96 447v510h193v-518q0 -115 8 -167t55 -87.5t131 -35.5q106 0 144.5 50t38.5 229v529h193v-503q0 -176 -21.5 -263.5t-105.5 -147t-243 -59.5q-155 0 -243 50.5t-119 131.5t-31 281zM247 1243h206l90 -195h-115z" />
<glyph unicode="&#xda;" horiz-adv-x="965" d="M96 447v510h193v-518q0 -115 8 -167t55 -87.5t131 -35.5q106 0 144.5 50t38.5 229v529h193v-503q0 -176 -21.5 -263.5t-105.5 -147t-243 -59.5q-155 0 -243 50.5t-119 131.5t-31 281zM382 1058l90 196h206l-180 -196h-116z" />
<glyph unicode="&#xdb;" horiz-adv-x="965" d="M96 447v510h193v-518q0 -115 8 -167t55 -87.5t131 -35.5q106 0 144.5 50t38.5 229v529h193v-503q0 -176 -21.5 -263.5t-105.5 -147t-243 -59.5q-155 0 -243 50.5t-119 131.5t-31 281zM252 1061l137 193h170l135 -193h-148l-75 97l-71 -97h-148z" />
<glyph unicode="&#xdc;" horiz-adv-x="965" d="M96 447v510h193v-518q0 -115 8 -167t55 -87.5t131 -35.5q106 0 144.5 50t38.5 229v529h193v-503q0 -176 -21.5 -263.5t-105.5 -147t-243 -59.5q-155 0 -243 50.5t-119 131.5t-31 281zM253 1066v158h158v-158h-158zM534 1066v158h158v-158h-158z" />
<glyph unicode="&#xdd;" horiz-adv-x="892" d="M-2 957h227l225 -379l220 379h223l-352 -556v-401h-192v403zM342 1058l90 196h206l-180 -196h-116z" />
<glyph unicode="&#xde;" horiz-adv-x="892" d="M97 0v957h194v-180h116q165 0 235.5 -15t129.5 -88.5t59 -191.5q0 -103 -47.5 -173t-121 -99.5t-245.5 -29.5h-126v-180h-194zM291 343h105q138 0 186.5 29.5t48.5 108.5q0 76 -45 105t-202 29h-93v-272z" />
<glyph unicode="&#xdf;" horiz-adv-x="817" d="M91 0v622q0 179 60.5 265.5t225.5 86.5q133 0 199 -57t66 -141q0 -57 -36 -122q-31 -54 -41 -79l-5 -25q0 -24 17 -45q0 -4 78 -84q115 -117 115 -215q0 -93 -66 -157.5t-166 -64.5q-143 0 -212 124l128 75q29 -52 68 -52q64 0 64 68q0 42 -109 144q-111 108 -111 167 q0 38 43 127q45 91 45 124q0 69 -79 69q-59 0 -80 -40.5t-21 -167.5v-622h-183z" />
<glyph unicode="&#xe0;" d="M48 189q0 75 41.5 130t210.5 88q130 25 179 45v19q0 98 -125 98q-90 0 -121 -87l-166 30q55 197 300 197q171 0 231.5 -59t60.5 -208l-2 -214q0 -143 41 -228h-181q-11 27 -24 76q-94 -92 -215 -92q-102 0 -166 55.5t-64 149.5zM159 973h206l90 -195h-115zM231 208 q0 -45 32 -69.5t70 -24.5q146 0 146 182v37q-88 -17 -212 -60q-36 -25 -36 -65z" />
<glyph unicode="&#xe1;" d="M48 189q0 75 41.5 130t210.5 88q130 25 179 45v19q0 98 -125 98q-90 0 -121 -87l-166 30q55 197 300 197q171 0 231.5 -59t60.5 -208l-2 -214q0 -143 41 -228h-181q-11 27 -24 76q-94 -92 -215 -92q-102 0 -166 55.5t-64 149.5zM231 208q0 -45 32 -69.5t70 -24.5 q146 0 146 182v37q-88 -17 -212 -60q-36 -25 -36 -65zM284 778l90 196h206l-180 -196h-116z" />
<glyph unicode="&#xe2;" d="M48 189q0 75 41.5 130t210.5 88q130 25 179 45v19q0 98 -125 98q-90 0 -121 -87l-166 30q55 197 300 197q171 0 231.5 -59t60.5 -208l-2 -214q0 -143 41 -228h-181q-11 27 -24 76q-94 -92 -215 -92q-102 0 -166 55.5t-64 149.5zM150 781l137 193h170l135 -193h-148 l-75 97l-71 -97h-148zM231 208q0 -45 32 -69.5t70 -24.5q146 0 146 182v37q-88 -17 -212 -60q-36 -25 -36 -65z" />
<glyph unicode="&#xe3;" d="M48 189q0 75 41.5 130t210.5 88q130 25 179 45v19q0 98 -125 98q-90 0 -121 -87l-166 30q55 197 300 197q171 0 231.5 -59t60.5 -208l-2 -214q0 -143 41 -228h-181q-11 27 -24 76q-94 -92 -215 -92q-102 0 -166 55.5t-64 149.5zM142 787v23q0 143 118 143q46 0 114 -34 q51 -22 82 -22q45 0 52 56h85q0 -164 -116 -164q-17 0 -44 5l-75 27q-64 23 -87 23q-45 0 -45 -57h-84zM231 208q0 -45 32 -69.5t70 -24.5q146 0 146 182v37q-88 -17 -212 -60q-36 -25 -36 -65z" />
<glyph unicode="&#xe4;" d="M48 189q0 75 41.5 130t210.5 88q130 25 179 45v19q0 98 -125 98q-90 0 -121 -87l-166 30q55 197 300 197q171 0 231.5 -59t60.5 -208l-2 -214q0 -143 41 -228h-181q-11 27 -24 76q-94 -92 -215 -92q-102 0 -166 55.5t-64 149.5zM155 786v158h158v-158h-158zM231 208 q0 -45 32 -69.5t70 -24.5q146 0 146 182v37q-88 -17 -212 -60q-36 -25 -36 -65zM436 786v158h158v-158h-158z" />
<glyph unicode="&#xe5;" d="M48 189q0 75 41.5 130t210.5 88q130 25 179 45v19q0 98 -125 98q-90 0 -121 -87l-166 30q55 197 300 197q171 0 231.5 -59t60.5 -208l-2 -214q0 -143 41 -228h-181q-11 27 -24 76q-94 -92 -215 -92q-102 0 -166 55.5t-64 149.5zM231 208q0 -45 32 -69.5t70 -24.5 q146 0 146 182v37q-88 -17 -212 -60q-36 -25 -36 -65zM247 876q0 54 37.5 91t90.5 37q36 0 64.5 -17.5t46 -46t17.5 -64.5t-17.5 -64.5t-46.5 -46t-64 -17.5q-53 0 -90.5 37t-37.5 91zM317 876q0 -58 58 -58t58 58t-58 58t-58 -58z" />
<glyph unicode="&#xe6;" horiz-adv-x="1189" d="M57 188q0 108 67.5 153t248.5 81q64 13 112 29v18q0 100 -115 100q-100 0 -126 -87l-167 32q61 195 317 195q138 0 212 -64q78 64 189 64q331 0 331 -416h-461q21 -169 144 -169q95 0 129 97l179 -32q-76 -205 -306 -205q-151 0 -247 96q-121 -96 -271 -96 q-125 0 -180.5 63t-55.5 141zM241 205q0 -91 102 -91q74 0 107 43t33 175q-151 -39 -164 -45q-78 -24 -78 -82zM668 407h277q0 162 -142 162q-64 0 -99.5 -49t-35.5 -113z" />
<glyph unicode="&#xe7;" d="M55 346q0 148 79.5 255.5t257.5 107.5q244 0 308 -221l-180 -32q-19 109 -126 109q-150 0 -150 -206q0 -225 153 -225q107 0 132 132l181 -31q-57 -251 -322 -251q-156 0 -244.5 99t-88.5 263zM197 -186q62 -7 123 -7q108 0 108 61q0 55 -83 55q-42 0 -85 -13l16 65 q53 17 110 17q167 0 167 -123q0 -143 -229 -143q-81 0 -127 11v77z" />
<glyph unicode="&#xe8;" d="M42 341q0 164 86 266t232 102q330 0 330 -415h-460q9 -173 151 -173q88 0 116 100l183 -31q-72 -206 -301 -206q-179 0 -258 104t-79 253zM149 973h206l90 -195h-115zM234 406h274q-5 163 -137 163q-137 0 -137 -163z" />
<glyph unicode="&#xe9;" d="M42 341q0 164 86 266t232 102q330 0 330 -415h-460q9 -173 151 -173q88 0 116 100l183 -31q-72 -206 -301 -206q-179 0 -258 104t-79 253zM234 406h274q-5 163 -137 163q-137 0 -137 -163zM284 778l90 196h206l-180 -196h-116z" />
<glyph unicode="&#xea;" d="M42 341q0 164 86 266t232 102q330 0 330 -415h-460q9 -173 151 -173q88 0 116 100l183 -31q-72 -206 -301 -206q-179 0 -258 104t-79 253zM144 781l137 193h170l135 -193h-148l-75 97l-71 -97h-148zM234 406h274q-5 163 -137 163q-137 0 -137 -163z" />
<glyph unicode="&#xeb;" d="M42 341q0 164 86 266t232 102q330 0 330 -415h-460q9 -173 151 -173q88 0 116 100l183 -31q-72 -206 -301 -206q-179 0 -258 104t-79 253zM151 786v158h158v-158h-158zM234 406h274q-5 163 -137 163q-137 0 -137 -163zM432 786v158h158v-158h-158z" />
<glyph unicode="&#xec;" horiz-adv-x="372" d="M-33 973h206l90 -195h-115zM96 0v693h183v-693h-183z" />
<glyph unicode="&#xed;" horiz-adv-x="372" d="M96 0v693h183v-693h-183zM102 778l90 196h206l-180 -196h-116z" />
<glyph unicode="&#xee;" horiz-adv-x="372" d="M-38 781l137 193h170l135 -193h-148l-75 97l-71 -97h-148zM96 0v693h183v-693h-183z" />
<glyph unicode="&#xef;" horiz-adv-x="372" d="M-32 786v158h158v-158h-158zM96 0v693h183v-693h-183zM249 786v158h158v-158h-158z" />
<glyph unicode="&#xf0;" horiz-adv-x="817" d="M54 348q0 150 92.5 247.5t211.5 97.5q73 0 145 -45q-17 28 -23 40q-24 42 -47 70q-13 16 -25 32l-163 -78l-28 63l142 67q-64 59 -142 115h191l71 -58l118 58l30 -64l-94 -43q234 -238 234 -493q0 -171 -100.5 -272t-259.5 -101q-174 0 -263.5 112.5t-89.5 251.5z M246 346q0 -105 47 -159t116 -54q68 0 118 56t50 151q0 96 -50.5 152.5t-119.5 56.5q-67 0 -114 -53t-47 -150z" />
<glyph unicode="&#xf1;" horiz-adv-x="817" d="M95 0v693h170v-102q91 118 229 118q233 0 233 -278v-431h-184v354q0 122 -22.5 168.5t-90.5 46.5q-61 0 -106.5 -35.5t-45.5 -219.5v-314h-183zM193 787v23q0 143 118 143q46 0 114 -34q51 -22 82 -22q45 0 52 56h85q0 -164 -116 -164q-17 0 -44 5l-75 27q-64 23 -87 23 q-45 0 -45 -57h-84z" />
<glyph unicode="&#xf2;" horiz-adv-x="817" d="M54 356q0 147 98 250t259 103q159 0 258.5 -101t99.5 -259t-100 -261.5t-257 -103.5q-163 0 -260.5 97t-97.5 275zM170 973h206l90 -195h-115zM242 347q0 -95 44.5 -154t124.5 -59t124.5 59.5t44.5 154.5t-44.5 153t-124.5 58t-124.5 -58.5t-44.5 -153.5z" />
<glyph unicode="&#xf3;" horiz-adv-x="817" d="M54 356q0 147 98 250t259 103q159 0 258.5 -101t99.5 -259t-100 -261.5t-257 -103.5q-163 0 -260.5 97t-97.5 275zM242 347q0 -95 44.5 -154t124.5 -59t124.5 59.5t44.5 154.5t-44.5 153t-124.5 58t-124.5 -58.5t-44.5 -153.5zM325 778l90 196h206l-180 -196h-116z" />
<glyph unicode="&#xf4;" horiz-adv-x="817" d="M54 356q0 147 98 250t259 103q159 0 258.5 -101t99.5 -259t-100 -261.5t-257 -103.5q-163 0 -260.5 97t-97.5 275zM185 781l137 193h170l135 -193h-148l-75 97l-71 -97h-148zM242 347q0 -95 44.5 -154t124.5 -59t124.5 59.5t44.5 154.5t-44.5 153t-124.5 58t-124.5 -58.5 t-44.5 -153.5z" />
<glyph unicode="&#xf5;" horiz-adv-x="817" d="M54 356q0 147 98 250t259 103q159 0 258.5 -101t99.5 -259t-100 -261.5t-257 -103.5q-163 0 -260.5 97t-97.5 275zM175 787v23q0 143 118 143q46 0 114 -34q51 -22 82 -22q45 0 52 56h85q0 -164 -116 -164q-17 0 -44 5l-75 27q-64 23 -87 23q-45 0 -45 -57h-84zM242 347 q0 -95 44.5 -154t124.5 -59t124.5 59.5t44.5 154.5t-44.5 153t-124.5 58t-124.5 -58.5t-44.5 -153.5z" />
<glyph unicode="&#xf6;" horiz-adv-x="817" d="M54 356q0 147 98 250t259 103q159 0 258.5 -101t99.5 -259t-100 -261.5t-257 -103.5q-163 0 -260.5 97t-97.5 275zM186 786v158h158v-158h-158zM242 347q0 -95 44.5 -154t124.5 -59t124.5 59.5t44.5 154.5t-44.5 153t-124.5 58t-124.5 -58.5t-44.5 -153.5zM467 786v158 h158v-158h-158z" />
<glyph unicode="&#xf7;" horiz-adv-x="734" d="M32 387v171h669v-171h-669zM275 121v183h183v-183h-183zM275 641v183h183v-183h-183z" />
<glyph unicode="&#xf8;" horiz-adv-x="817" d="M57 351q0 157 99 257.5t258 100.5q115 0 204 -57l68 79l73 -60l-71 -81q84 -102 84 -244q0 -136 -91.5 -249t-267.5 -113q-109 0 -201 55l-75 -87l-72 62l76 88q-84 102 -84 249zM239 353q0 -64 18 -117l258 298q-44 35 -100 35q-63 0 -119.5 -52t-56.5 -164zM315 158 q41 -31 98 -31q66 0 121.5 50.5t55.5 164.5q0 61 -19 112z" />
<glyph unicode="&#xf9;" horiz-adv-x="817" d="M92 255v438h183v-318q0 -151 22.5 -201t92.5 -50q87 0 118 53.5t31 223.5v292h184v-693h-171v104q-81 -120 -230 -120q-230 0 -230 271zM186 973h206l90 -195h-115z" />
<glyph unicode="&#xfa;" horiz-adv-x="817" d="M92 255v438h183v-318q0 -151 22.5 -201t92.5 -50q87 0 118 53.5t31 223.5v292h184v-693h-171v104q-81 -120 -230 -120q-230 0 -230 271zM321 778l90 196h206l-180 -196h-116z" />
<glyph unicode="&#xfb;" horiz-adv-x="817" d="M92 255v438h183v-318q0 -151 22.5 -201t92.5 -50q87 0 118 53.5t31 223.5v292h184v-693h-171v104q-81 -120 -230 -120q-230 0 -230 271zM182 781l137 193h170l135 -193h-148l-75 97l-71 -97h-148z" />
<glyph unicode="&#xfc;" horiz-adv-x="817" d="M92 255v438h183v-318q0 -151 22.5 -201t92.5 -50q87 0 118 53.5t31 223.5v292h184v-693h-171v104q-81 -120 -230 -120q-230 0 -230 271zM192 786v158h158v-158h-158zM473 786v158h158v-158h-158z" />
<glyph unicode="&#xfd;" d="M9 693h195l166 -492l162 492h190l-289 -788q-68 -186 -259 -186q-53 0 -104 11l-16 143q43 -8 77 -8q104 0 142 133zM289 778l90 196h206l-180 -196h-116z" />
<glyph unicode="&#xfe;" horiz-adv-x="817" d="M91 -264v1221h183v-344q95 96 204 96q120 0 204.5 -94t84.5 -264q0 -174 -84.5 -270.5t-205.5 -96.5q-112 0 -203 102v-350h-183zM273 362q0 -233 161 -233q146 0 146 216q0 224 -154 224q-153 0 -153 -207z" />
<glyph unicode="&#xff;" d="M9 693h195l166 -492l162 492h190l-289 -788q-68 -186 -259 -186q-53 0 -104 11l-16 143q43 -8 77 -8q104 0 142 133zM150 786v158h158v-158h-158zM431 786v158h158v-158h-158z" />
<glyph unicode="&#x152;" horiz-adv-x="1337" d="M47 480q0 235 101 364.5t273 129.5q166 0 259 -122v105h598v-162h-430v-213h393v-161h-393v-258h448v-163h-616v113q-74 -129 -250 -129q-111 0 -194 49.5t-136 162.5t-53 284zM246 494q0 -341 212 -341q211 0 211 337q0 318 -211 318q-212 0 -212 -314z" />
<glyph unicode="&#x153;" horiz-adv-x="1262" d="M57 345q0 155 93.5 259.5t261.5 104.5q145 0 242 -96q90 96 231 96q322 0 322 -416h-456q0 -71 40 -120t106 -49q88 0 123 99l179 -29q-72 -210 -302 -210q-148 0 -245 97q-103 -97 -243 -97q-151 0 -251.5 101.5t-100.5 259.5zM246 336q0 -67 41 -133.5t123 -66.5 q67 0 113.5 54.5t46.5 162.5q0 85 -40 144.5t-120 59.5q-164 0 -164 -221zM753 407h278q0 74 -39.5 120.5t-102.5 46.5q-69 0 -102.5 -51t-33.5 -116z" />
<glyph unicode="&#x178;" horiz-adv-x="892" d="M-2 957h227l225 -379l220 379h223l-352 -556v-401h-192v403zM223 1096v158h158v-158h-158zM504 1096v158h158v-158h-158z" />
<glyph unicode="&#x2c6;" horiz-adv-x="445" d="M2 781l137 193h170l135 -193h-148l-75 97l-71 -97h-148z" />
<glyph unicode="&#x2dc;" horiz-adv-x="445" d="M-8 787v23q0 143 118 143q46 0 114 -34q51 -22 82 -22q45 0 52 56h85q0 -164 -116 -164q-17 0 -44 5l-75 27q-64 23 -87 23q-45 0 -45 -57h-84z" />
<glyph unicode="&#x2000;" horiz-adv-x="682" />
<glyph unicode="&#x2001;" horiz-adv-x="1365" />
<glyph unicode="&#x2002;" horiz-adv-x="682" />
<glyph unicode="&#x2003;" horiz-adv-x="1365" />
<glyph unicode="&#x2004;" horiz-adv-x="455" />
<glyph unicode="&#x2005;" horiz-adv-x="341" />
<glyph unicode="&#x2006;" horiz-adv-x="227" />
<glyph unicode="&#x2007;" horiz-adv-x="227" />
<glyph unicode="&#x2008;" horiz-adv-x="170" />
<glyph unicode="&#x2009;" horiz-adv-x="273" />
<glyph unicode="&#x200a;" horiz-adv-x="75" />
<glyph unicode="&#x2010;" horiz-adv-x="445" d="M43 255v184h360v-184h-360z" />
<glyph unicode="&#x2011;" horiz-adv-x="445" d="M43 255v184h360v-184h-360z" />
<glyph unicode="&#x2012;" horiz-adv-x="445" d="M43 255v184h360v-184h-360z" />
<glyph unicode="&#x2013;" d="M0 278v137h744v-137h-744z" />
<glyph unicode="&#x2014;" horiz-adv-x="1337" d="M0 278v137h1337v-137h-1337z" />
<glyph unicode="&#x2018;" horiz-adv-x="371" d="M99 569v131q0 213 163 266l36 -76q-102 -33 -104 -137h89v-184h-184z" />
<glyph unicode="&#x2019;" horiz-adv-x="371" d="M74 636q102 34 104 138h-89v183h184v-131q0 -210 -163 -265z" />
<glyph unicode="&#x201a;" horiz-adv-x="372" d="M76 -138q104 32 104 138h-89v183h184v-131q0 -109 -33.5 -169t-129.5 -97z" />
<glyph unicode="&#x201c;" horiz-adv-x="668" d="M86 569v131q0 213 163 266l36 -76q-102 -33 -104 -137h89v-184h-184zM392 569v131q0 211 163 266l36 -76q-102 -33 -104 -137h89v-184h-184z" />
<glyph unicode="&#x201d;" horiz-adv-x="668" d="M69 636q101 33 103 138h-88v183h183v-132q0 -212 -163 -266zM377 636q102 34 103 138h-88v183h183v-132q0 -211 -162 -266z" />
<glyph unicode="&#x201e;" horiz-adv-x="669" d="M91 -138q103 34 103 138h-88v183h183v-132q0 -107 -34 -169t-129 -96zM399 -138q103 33 103 138h-88v183h183v-132q0 -106 -33.5 -168.5t-128.5 -96.5z" />
<glyph unicode="&#x2022;" horiz-adv-x="468" d="M43 473q0 80 56.5 136t136.5 56q71 0 132 -50t61 -142q0 -71 -50.5 -132.5t-142.5 -61.5t-142.5 61.5t-50.5 132.5z" />
<glyph unicode="&#x2026;" horiz-adv-x="1337" d="M131 0v183h184v-183h-184zM577 0v183h184v-183h-184zM1022 0v183h184v-183h-184z" />
<glyph unicode="&#x202f;" horiz-adv-x="273" />
<glyph unicode="&#x2039;" horiz-adv-x="445" d="M49 347l206 295h145l-170 -295l170 -301h-145z" />
<glyph unicode="&#x203a;" horiz-adv-x="445" d="M49 46l170 295l-170 301h144l207 -301l-207 -295h-144z" />
<glyph unicode="&#x205f;" horiz-adv-x="341" />
<glyph unicode="&#x20ac;" d="M-21 334l21 101h64q-1 15 -1 33q0 30 1 53h-85l21 100h77q28 130 109 217q123 131 323 131q109 0 190 -40l-39 -180q-55 56 -161 56t-171 -76q-37 -43 -53 -108h357l-20 -100h-350q-1 -15 -1 -39q0 -22 2 -47h330l-20 -101h-297q16 -69 50 -109q65 -77 169 -77 q125 0 199 77v-199q-84 -42 -197 -42q-189 0 -312 130q-83 88 -110 220h-96z" />
<glyph unicode="&#x2122;" horiz-adv-x="1337" d="M141 865v92h434v-92h-160v-443h-109v443h-165zM640 422v535h169l97 -368l98 368h169v-535h-103v427l-115 -427h-98l-115 427v-427h-102z" />
<glyph unicode="&#x25fc;" horiz-adv-x="695" d="M0 0v695h695v-695h-695z" />
</font>
</defs>
</svg>
